Coordinates
version=1
nRows=16
nColumns=36
inDegrees=yes

Units are S.I. units (second, meters, Newtons, ...)
If the header above contains a line with 'inDegrees', this indicates whether rotational values are in degrees (yes) or radians (no).

endheader
time	pelvis_tilt	pelvis_list	pelvis_rotation	pelvis_tx	pelvis_ty	pelvis_tz	hip_flexion_r	hip_adduction_r	hip_rotation_r	knee_angle_r	knee_angle_r_beta	ankle_angle_r	subtalar_angle_r	mtp_angle_r	hip_flexion_l	hip_adduction_l	hip_rotation_l	knee_angle_l	knee_angle_l_beta	ankle_angle_l	subtalar_angle_l	mtp_angle_l	lumbar_extension	lumbar_bending	lumbar_rotation	arm_flex_r	arm_add_r	arm_rot_r	elbow_flex_r	pro_sup_r	arm_flex_l	arm_add_l	arm_rot_l	elbow_flex_l	pro_sup_l
      2.28333330	     -6.36428607	      2.22725817	     -8.57039765	      0.89381645	      0.88026248	      0.08189461	     33.40814279	     -4.11644258	     -1.02878871	     45.50831585	      0.79426995	     10.04008205	     -4.50816586	     -7.49999987	     33.06674983	     -1.02550753	      2.42077339	     47.62210815	      0.83116258	      9.55561324	    -10.19640238	     -7.49999987	     -5.63368061	      2.09959411	     -2.58906961	    -36.75704180	    -21.80109138	    -14.35707509	      6.79766129	     89.39427914	    -40.39680729	    -15.27638583	    -46.77298341	     19.97319609	     95.14195368
      2.30000000	     -5.72324121	      2.25969653	     -9.09506199	      0.91248612	      0.84634207	      0.07808915	     38.01845148	     -3.42498159	      1.43803939	     59.70407202	      1.04203263	     19.47260843	     -6.67134016	     -7.49999987	     37.03343393	     -0.41239555	      3.53176575	     60.79839944	      1.06113225	     19.66780903	    -11.18054036	     -7.49999987	     -5.69599495	      2.27966093	     -2.83758245	    -28.32327945	    -19.84520870	     -1.74700454	      9.19949931	     73.77368413	    -32.44101179	    -11.81889508	    -36.92085727	     16.34739583	     90.70652427
      2.31666670	     -4.13104120	      1.72082256	     -9.35053490	      0.91863963	      0.83236034	      0.07980450	     39.37729868	     -2.39741243	      2.82221560	     68.72580330	      1.19949155	     25.83350784	     -7.34360280	     -7.49999987	     38.91652288	     -0.00690144	      4.43835218	     70.96762685	      1.23861875	     25.75849880	    -11.94450058	     -7.49999987	     -7.32315163	      2.83284839	     -1.62635414	    -18.37020617	    -16.75804552	      2.11976391	     11.21545414	     72.72947492	    -20.66179356	     -9.82437697	    -28.31164496	     12.81067667	     91.72725651
      2.33333330	     -3.39040981	      1.29717508	     -9.41412474	      0.91596834	      0.80609791	      0.07839118	     41.53428756	     -1.64685239	      3.50447116	     75.84268447	      1.32370456	     30.99086273	     -7.19500999	     -7.49999987	     41.43937293	      0.56601311	      5.34165171	     79.19902031	      1.38228367	     29.93373315	    -12.65985487	     -7.49999987	    -10.90918667	      2.85837704	     -0.27974925	     -8.44943934	    -15.27499491	     10.22263841	     16.43017885	     69.81786542	     -8.73503445	     -9.51810437	    -14.71419554	     14.62973878	     91.12053369
      2.35000000	     -2.37291430	      0.80673106	     -9.30200811	      0.92498988	      0.80024719	      0.07952670	     40.82476460	     -1.03323602	      3.83235321	     78.92847597	      1.37756178	     34.43969841	     -6.82061087	     -7.49999987	     41.23691921	      1.27436056	      6.29564828	     83.02651354	      1.44908603	     31.60564478	    -13.98559775	     -7.49999987	    -13.92038871	      3.19052751	      0.22477533	     -0.22606798	    -14.57572174	     18.45807542	     20.09953597	     56.73211793	      0.32972500	     -9.16115785	      1.25934063	     19.16679777	     76.04536356
      2.36666670	     -2.58218645	      0.84187253	     -9.20075426	      0.95590388	      0.78435590	      0.08857257	     40.04110276	     -0.71067848	      4.10604020	     80.94425668	      1.41274379	     36.88879763	     -6.92766812	     -7.49999987	     40.38761773	      1.94229869	      7.01392189	     84.65811555	      1.47756285	     32.33526300	    -15.43489002	     -7.49999987	    -12.50315648	      2.66873280	      0.64915700	      4.17745525	    -14.05503594	     19.76500592	     26.72970228	     57.58818950	      3.64318875	     -8.92171053	      2.97857732	     25.55223964	     76.04073270
      2.38333330	     -3.67697934	      1.06491800	     -9.15182705	      0.96762348	      0.77760723	      0.09167090	     39.81430135	     -0.49814281	      4.20244645	     81.64997742	      1.42506094	     38.50580336	     -7.38954475	     -7.49999987	     40.20256236	      2.30421778	      7.48743138	     85.30566607	      1.48886474	     32.85668791	    -16.06103520	     -7.49999987	     -8.69811224	      2.51005092	      0.25002899	      8.92471856	    -14.34511053	     20.19466263	     36.75446973	     59.33944757	      7.05689917	    -10.45986330	      6.03931200	     36.00101587	     77.53623327
      2.40000000	     -4.71834506	      1.14620179	     -9.08666126	      0.95714456	      0.78608335	      0.09405952	     39.66684842	     -0.04523184	      4.29330963	     80.40864880	      1.40339567	     39.25857802	     -7.80189686	     -7.49999987	     40.09289816	      1.98170857	      7.74525396	     84.16874640	      1.46902175	     33.06666305	    -15.88317557	     -7.49999987	     -5.84267280	      2.40119435	      1.46273474	     14.38883980	    -14.57653510	     13.09366215	     51.47018115	     70.59355811	     15.33575740	    -11.86242528	      9.79377891	     48.55689397	     83.66611813
      2.41666670	     -5.71714158	      1.00220396	     -8.88891073	      0.96067230	      0.79071735	      0.09433175	     39.77610247	      0.40952774	      4.16143008	     78.75278749	      1.37449544	     39.25785584	     -8.02972386	     -7.49999987	     39.94351942	      1.30269089	      7.92821661	     82.30868444	      1.43655755	     32.41640933	    -15.93734089	     -7.49999987	     -3.60984793	      2.51757665	      0.29148579	     22.81366535	    -16.34852293	     14.68016976	     63.61720075	     72.56172843	     25.41338492	    -14.14730084	     14.03658203	     59.08139138	     84.70868512
      2.43333330	     -6.12096490	      0.77930746	     -9.01567960	      0.96873149	      0.80682495	      0.09304099	     38.37047281	      0.74139896	      4.16605637	     75.48188093	      1.31740735	     38.74000242	     -7.99122545	     -7.49999987	     38.49253717	      0.52350742	      7.60021874	     79.24357013	      1.38306121	     30.62662299	    -16.16876232	     -7.49999987	     -2.39355301	      3.04761755	      0.31773137	     30.97929038	    -18.52816296	     15.95605492	     71.53301397	     74.08011620	     34.77303687	    -15.81280459	     19.13551787	     66.75026657	     84.28707258
      2.45000000	     -6.40723106	      0.83475339	     -8.90106405	      0.97778050	      0.82471376	      0.09302388	     36.20697706	      0.54673635	      4.05748958	     71.04834468	      1.24002754	     37.01851107	     -8.13376156	     -7.49999987	     36.37885826	      0.18683301	      7.36821015	     75.18629561	      1.31224841	     28.58106165	    -16.17909929	     -7.49999987	     -1.02761923	      2.94486373	      0.22785568	     38.40446182	    -21.17505607	     17.75754027	     79.37276957	     75.82394545	     43.12906352	    -17.69416627	     22.47664286	     73.51844289	     84.05136525
      2.46666670	     -6.61897665	      1.37450558	     -8.76948044	      0.99011165	      0.83795223	      0.09358841	     34.02203746	     -0.37090479	      3.80375306	     66.81493193	      1.16614055	     35.18951305	     -7.90259272	     -7.49999987	     33.97062192	      0.33143622	      6.93575357	     70.80181776	      1.23572484	     26.83292117	    -15.93179769	     -7.49999987	     -0.10534825	      2.90905226	      2.54550312	     47.99768009	    -28.05542087	     20.18534216	     83.33627545	     89.62652360	     53.31213113	    -19.19838191	     27.34388416	     78.68769168	     91.33036157
      2.48333330	     -6.71009320	      1.80904004	     -8.43385568	      0.99352043	      0.86973963	      0.09530997	     30.97385373	     -1.33603309	      3.14569945	     60.68212828	      1.05910294	     32.24713440	     -7.60133817	     -7.49999987	     30.84186567	      0.38869424	      6.56945426	     64.62135271	      1.12785537	     24.04333625	    -15.79442313	     -7.49999987	      0.48010576	      2.90571807	      4.13397779	     55.93923729	    -35.13722725	     24.75845989	     87.56450323	     88.41972674	     59.75343129	    -21.69553568	     31.32411920	     85.29485978	     90.52310245
      2.50000000	     -6.98009926	      1.95129846	     -8.35125657	      1.00595453	      0.89433251	      0.09635846	     27.38129546	     -1.99132265	      2.22399386	     53.28140834	      0.92993601	     28.32278317	     -7.31317502	     -7.49999987	     27.13482768	      0.02361777	      6.07882265	     56.99929621	      0.99482539	     20.57112407	    -15.29156787	     -7.49999987	      2.20261699	      2.98973799	      3.68210550	     64.01511043	    -39.03105227	     31.49060492	     90.29798482	     82.72984772	     64.35961540	    -24.66902682	     32.37230231	     91.22688894	     89.90457650
      2.51666670	     -6.58105023	      2.08752571	     -7.92581789	      1.01861242	      0.93492871	      0.09456911	     21.84335630	     -2.66350031	      1.00283788	     43.19476858	      0.75389093	     22.43496507	     -6.98110435	     -7.49999987	     21.93179150	     -0.02095563	      5.50106828	     47.53261327	      0.82960060	     14.89301162	    -15.37877831	     -7.49999987	      3.98955706	      2.61394417	      4.08152013	     65.95101905	    -42.53183091	     33.60764697	     93.85248813	     82.85460540	     64.33074447	    -26.04285810	     33.20251769	     96.99102478	     91.01352844
      2.53333330	     -6.33667711	      1.94278387	     -7.77506837	      1.02373961	      0.98680378	      0.09859799	     16.21256214	     -2.66641784	     -0.23822357	     31.86003231	      0.55606246	     15.27190502	     -5.53909934	     -7.49999987	     16.58758049	     -0.81741745	      4.29751674	     36.86051683	      0.64333738	      8.00821662	    -13.59758000	     -7.49999987	      4.67312545	      2.86110207	      3.29939603	     68.10087050	    -43.88294814	     38.34625704	     98.01976830	     75.42880907	     61.09126346	    -29.63725415	     32.86106748	    104.12864702	     87.75920231
